<svg xmlns="http://www.w3.org/2000/svg" width="1164" height="2044" viewBox="0 0 1164 2044">
  <title>Modern Android phone frame</title>
  <defs>
    <filter id="body-shadow" x="-12%" y="-8%" width="124%" height="120%">
      <feDropShadow dx="0" dy="10" stdDeviation="12" flood-color="#000000" flood-opacity=".2"/>
    </filter>
    <linearGradient id="rail" x1="0" y1="0" x2="1" y2="0">
      <stop stop-color="#202428"/>
      <stop offset=".08" stop-color="#454c52"/>
      <stop offset=".18" stop-color="#2c3236"/>
      <stop offset=".5" stop-color="#363c41"/>
      <stop offset=".82" stop-color="#2c3236"/>
      <stop offset=".94" stop-color="#495057"/>
      <stop offset="1" stop-color="#1e2327"/>
    </linearGradient>
    <linearGradient id="rail-rim" x1="0" y1="0" x2="0" y2="1">
      <stop stop-color="#d5dde2" stop-opacity=".72"/>
      <stop offset=".08" stop-color="#727a80" stop-opacity=".46"/>
      <stop offset=".92" stop-color="#101214" stop-opacity=".4"/>
      <stop offset="1" stop-color="#8d969c" stop-opacity=".56"/>
    </linearGradient>
    <linearGradient id="top-reflection" x1="0" y1="0" x2="1" y2=".24">
      <stop stop-color="#ffffff" stop-opacity="0"/>
      <stop offset=".05" stop-color="#ffffff" stop-opacity=".82"/>
      <stop offset=".24" stop-color="#e8f2f6" stop-opacity=".52"/>
      <stop offset=".7" stop-color="#aebdc6" stop-opacity=".12"/>
      <stop offset="1" stop-color="#ffffff" stop-opacity="0"/>
    </linearGradient>
    <linearGradient id="bottom-reflection" x1="0" y1="0" x2="1" y2="0">
      <stop stop-color="#dce7ec" stop-opacity="0"/>
      <stop offset=".1" stop-color="#dce7ec" stop-opacity=".18"/>
      <stop offset=".72" stop-color="#f2f8fb" stop-opacity=".48"/>
      <stop offset=".94" stop-color="#dce7ec" stop-opacity=".16"/>
      <stop offset="1" stop-color="#dce7ec" stop-opacity="0"/>
    </linearGradient>
    <linearGradient id="side-reflection" x1="0" y1="0" x2="0" y2="1">
      <stop stop-color="#edf5f8" stop-opacity="0"/>
      <stop offset=".08" stop-color="#edf5f8" stop-opacity=".5"/>
      <stop offset=".34" stop-color="#d7e3e9" stop-opacity=".14"/>
      <stop offset=".75" stop-color="#d7e3e9" stop-opacity=".05"/>
      <stop offset="1" stop-color="#edf5f8" stop-opacity="0"/>
    </linearGradient>
    <linearGradient id="button" x1="0" y1="0" x2="1" y2="0">
      <stop stop-color="#272d32"/>
      <stop offset=".34" stop-color="#4d555b"/>
      <stop offset=".55" stop-color="#707a81"/>
      <stop offset="1" stop-color="#252b30"/>
    </linearGradient>
    <radialGradient id="lens" cx="35%" cy="25%" r="72%">
      <stop stop-color="#4d718c"/>
      <stop offset=".32" stop-color="#1d3142"/>
      <stop offset=".76" stop-color="#0a1016"/>
      <stop offset="1" stop-color="#030507"/>
    </radialGradient>
    <linearGradient id="status-scrim" x1="0" y1="0" x2="0" y2="1">
      <stop stop-color="#090c0e" stop-opacity=".48"/>
      <stop offset=".66" stop-color="#090c0e" stop-opacity=".1"/>
      <stop offset="1" stop-color="#090c0e" stop-opacity="0"/>
    </linearGradient>
    <linearGradient id="navigation-scrim" x1="0" y1="0" x2="0" y2="1">
      <stop stop-color="#090c0e" stop-opacity="0"/>
      <stop offset=".58" stop-color="#090c0e" stop-opacity=".18"/>
      <stop offset="1" stop-color="#090c0e" stop-opacity=".66"/>
    </linearGradient>
  </defs>
  <g filter="url(#body-shadow)">
    <path fill="url(#rail)" fill-rule="evenodd" d="M287 188h590c50 0 90 40 90 90v1475c0 50-40 90-90 90H287c-50 0-90-40-90-90V278c0-50 40-90 90-90Zm-5 13h600c44 0 80 36 80 80v1469c0 44-36 80-80 80H282c-44 0-80-36-80-80V281c0-44 36-80 80-80Z"/>
    <rect x="198" y="189" width="768" height="1653" rx="89" fill="none" stroke="url(#rail-rim)" stroke-width="2"/>
    <path d="M288 191h588c48 0 87 39 87 87" fill="none" stroke="url(#top-reflection)" stroke-width="2" stroke-linecap="round"/>
    <path d="M210 350V1610" fill="none" stroke="url(#side-reflection)" stroke-width="2" stroke-linecap="round"/>
    <path d="M954 370V1520" fill="none" stroke="url(#side-reflection)" stroke-opacity=".42" stroke-width="1.5" stroke-linecap="round"/>
    <path d="M201 1751c0 48 39 87 87 87h588" fill="none" stroke="url(#bottom-reflection)" stroke-width="2" stroke-linecap="round"/>
    <rect x="202" y="201" width="760" height="1629" rx="80" fill="none" stroke="#8f969b" stroke-opacity=".18" stroke-width="2"/>
    <rect x="968" y="500" width="8" height="75" rx="4" fill="url(#button)"/>
    <rect x="968" y="612" width="8" height="142" rx="4" fill="url(#button)"/>
    <rect x="969" y="502" width="1" height="71" rx=".5" fill="#e2edf2" fill-opacity=".46"/>
    <rect x="969" y="614" width="1" height="138" rx=".5" fill="#e2edf2" fill-opacity=".46"/>
    <path d="M970 501h4" fill="none" stroke="#f5fbff" stroke-opacity=".44" stroke-width="1.2" stroke-linecap="round"/>
    <path d="M970 613h4" fill="none" stroke="#f5fbff" stroke-opacity=".44" stroke-width="1.2" stroke-linecap="round"/>
    <rect x="563" y="208" width="38" height="2" rx="1" fill="#b2b9be" fill-opacity=".18"/>
    <circle cx="582" cy="228" r="7" fill="#090c0e" stroke="#59626a" stroke-opacity=".18"/>
    <circle cx="582" cy="228" r="4.5" fill="url(#lens)"/>
    <circle cx="580.5" cy="226.5" r="1" fill="#a5d3ee" fill-opacity=".32"/>
  </g>
  <path d="M282 201h600c44 0 80 36 80 80v78H202v-78c0-44 36-80 80-80Z" fill="url(#status-scrim)"/>
  <path d="M202 1707h760v43c0 44-36 80-80 80H282c-44 0-80-36-80-80Z" fill="url(#navigation-scrim)"/>
  <g fill="#f5f7fa" font-family="Roboto, Arial, sans-serif">
    <text x="260" y="264" font-size="28" font-weight="600" letter-spacing=".2">2:05</text>
    <rect x="742" y="253" width="5" height="11" rx="1.5" fill-opacity=".9"/>
    <rect x="752" y="248" width="5" height="16" rx="1.5" fill-opacity=".9"/>
    <rect x="762" y="243" width="5" height="21" rx="1.5" fill-opacity=".9"/>
    <rect x="772" y="238" width="5" height="26" rx="1.5" fill-opacity=".9"/>
    <path d="M798 247c9-9 25-9 34 0l-4 5c-7-7-18-7-26 0z"/>
    <path d="M805 254c6-6 15-6 21 0l-4 5c-4-4-9-4-13 0z"/>
    <circle cx="815" cy="262" r="3.5"/>
    <rect x="851" y="241" width="42" height="23" rx="5" fill="none" stroke="#f5f7fa" stroke-width="2.5"/>
    <rect x="896" y="249" width="4" height="8" rx="2"/>
    <rect x="855" y="245" width="30" height="15" rx="2.5"/>
  </g>
  <rect x="524" y="1794" width="116" height="7" rx="3.5" fill="#f5f7fa" fill-opacity=".94"/>
</svg>
