<svg xmlns="http://www.w3.org/2000/svg" viewBox="0 0 896 896" role="img" aria-labelledby="title desc">
  <title id="title">Animated Payky honey badger coin logo</title>
  <desc id="desc">Animated Payky app icon with a warm gold coin shimmer and honey badger mark.</desc>
  <style>
    :root {
      color-scheme: light dark;
    }

    .coin {
      animation: coin-breathe 4.8s ease-in-out infinite;
      filter: drop-shadow(0 26px 42px rgb(0 0 0 / 0.28));
      transform-origin: 441px 448px;
    }

    .rim {
      animation: rim-pulse 4.8s ease-in-out infinite;
    }

    .shine {
      animation: shine-sweep 3.8s cubic-bezier(0.45, 0, 0.2, 1) infinite;
      mix-blend-mode: screen;
      opacity: 0;
      transform-box: fill-box;
      transform-origin: center;
    }

    .mark {
      animation: mark-settle 900ms cubic-bezier(0.2, 0.8, 0.2, 1) both;
      transform-box: fill-box;
      transform-origin: center;
    }

    .eye-glint {
      animation: eye-glint 3.8s ease-in-out 1.2s infinite;
      transform-box: fill-box;
      transform-origin: center;
    }

    @keyframes coin-breathe {
      0%, 100% {
        transform: translateY(0);
      }
      50% {
        transform: translateY(-6px);
      }
    }

    @keyframes rim-pulse {
      0%, 100% {
        opacity: 0.26;
        stroke-width: 12;
      }
      50% {
        opacity: 0.48;
        stroke-width: 18;
      }
    }

    @keyframes shine-sweep {
      0% {
        opacity: 0;
        transform: translateX(-58%) rotate(-18deg);
      }
      18% {
        opacity: 0.4;
      }
      42% {
        opacity: 0;
        transform: translateX(62%) rotate(-18deg);
      }
      100% {
        opacity: 0;
        transform: translateX(62%) rotate(-18deg);
      }
    }

    @keyframes mark-settle {
      0% {
        opacity: 0;
        transform: translateY(14px);
      }
      68% {
        opacity: 1;
        transform: translateY(-2px);
      }
      100% {
        opacity: 1;
        transform: translateY(0);
      }
    }

    @keyframes eye-glint {
      0%, 72%, 100% {
        opacity: 0;
        transform: scale(0.45);
      }
      78% {
        opacity: 0.86;
        transform: scale(1.05);
      }
      84% {
        opacity: 0;
        transform: scale(0.45);
      }
    }

    @media (prefers-reduced-motion: reduce) {
      .coin,
      .rim,
      .shine,
      .mark,
      .eye-glint {
        animation: none;
      }

      .shine,
      .eye-glint {
        opacity: 0;
      }
    }
  </style>

  <defs>
    <radialGradient id="paykyGoldSoft" cx="0" cy="0" r="1" gradientUnits="userSpaceOnUse" gradientTransform="translate(351 258) rotate(63) scale(683.6 560)">
      <stop offset="0" stop-color="#F8D96A" />
      <stop offset="0.7" stop-color="#D49A24" />
      <stop offset="1" stop-color="#B87918" />
    </radialGradient>
    <linearGradient id="rimGold" x1="128" y1="104" x2="742" y2="842" gradientUnits="userSpaceOnUse">
      <stop offset="0" stop-color="#FFF0A3" />
      <stop offset="0.48" stop-color="#D99A22" />
      <stop offset="1" stop-color="#8F5811" />
    </linearGradient>
    <linearGradient id="shineGradient" x1="0" y1="0" x2="1" y2="0">
      <stop offset="0" stop-color="#FFFFFF" stop-opacity="0" />
      <stop offset="0.48" stop-color="#FFFFFF" stop-opacity="0.72" />
      <stop offset="1" stop-color="#FFFFFF" stop-opacity="0" />
    </linearGradient>
    <clipPath id="coinClip">
      <ellipse cx="441" cy="448" rx="441" ry="448" />
    </clipPath>
    <clipPath id="artboardClip">
      <rect width="896" height="896" />
    </clipPath>
  </defs>

  <rect width="896" height="896" fill="transparent" />

  <g clip-path="url(#artboardClip)">
    <g transform="translate(34 34) scale(0.924)">
      <g transform="translate(7)">
        <g class="coin">
          <ellipse cx="441" cy="448" rx="441" ry="448" fill="url(#paykyGoldSoft)" />
          <ellipse class="rim" cx="441" cy="448" rx="417" ry="424" fill="none" stroke="url(#rimGold)" />
          <g clip-path="url(#coinClip)">
            <rect class="shine" x="-128" y="-104" width="220" height="1104" fill="url(#shineGradient)" />
            <path class="mark" d="
          M 305.0 295.0 L 292.0 306.0 L 287.0 321.0 L 287.0 335.0 L 290.0 347.0 L 294.0 356.0 L 305.0 372.0 L 235.0 426.0 L 184.0 472.0 L 147.0 510.0 L 115.0 547.0 L 94.0 575.0 L 94.0 583.0 L 118.0 634.0 L 133.0 658.0 L 160.0 693.0 L 194.0 728.0 L 230.0 757.0 L 261.0 777.0 L 294.0 794.0 L 321.0 805.0 L 353.0 815.0 L 380.0 821.0 L 436.0 827.0 L 470.0 826.0 L 507.0 821.0 L 510.0 818.0 L 496.0 806.0 L 468.0 776.0 L 449.0 750.0 L 439.0 732.0 L 430.0 709.0 L 425.0 686.0 L 424.0 666.0 L 427.0 647.0 L 421.0 647.0 L 398.0 659.0 L 352.0 692.0 L 351.0 689.0 L 372.0 654.0 L 399.0 619.0 L 430.0 588.0 L 458.0 568.0 L 492.0 553.0 L 515.0 548.0 L 549.0 547.0 L 611.0 550.0 L 670.0 556.0 L 685.0 554.0 L 703.0 542.0 L 735.0 511.0 L 752.0 485.0 L 754.0 480.0 L 754.0 472.0 L 752.0 469.0 L 747.0 467.0 L 735.0 467.0 L 726.0 471.0 L 719.0 481.0 L 716.0 480.0 L 710.0 474.0 L 707.0 466.0 L 708.0 459.0 L 716.0 448.0 L 713.0 444.0 L 652.0 406.0 L 649.0 403.0 L 651.0 394.0 L 649.0 387.0 L 590.0 361.0 L 541.0 344.0 L 509.0 335.0 L 464.0 325.0 L 418.0 318.0 L 394.0 318.0 L 400.0 335.0 L 400.0 339.0 L 398.0 340.0 L 370.0 315.0 L 341.0 297.0 L 327.0 293.0 L 311.0 293.0 Z
          M 532.0 392.0 L 535.0 389.0 L 559.0 392.0 L 566.0 396.0 L 570.0 405.0 L 576.0 401.0 L 592.0 409.0 L 594.0 413.0 L 575.0 420.0 L 556.0 419.0 L 542.0 409.0 Z
          M 324.0 92.0 L 290.0 105.0 L 260.0 120.0 L 227.0 141.0 L 197.0 165.0 L 166.0 196.0 L 147.0 219.0 L 116.0 267.0 L 91.0 323.0 L 76.0 377.0 L 71.0 410.0 L 69.0 438.0 L 71.0 439.0 L 98.0 407.0 L 152.0 349.0 L 195.0 307.0 L 228.0 278.0 L 260.0 254.0 L 281.0 241.0 L 310.0 227.0 L 333.0 219.0 L 362.0 212.0 L 401.0 208.0 L 435.0 209.0 L 472.0 214.0 L 505.0 222.0 L 534.0 232.0 L 569.0 249.0 L 594.0 265.0 L 613.0 280.0 L 636.0 302.0 L 673.0 347.0 L 677.0 357.0 L 679.0 384.0 L 765.0 449.0 L 770.0 456.0 L 770.0 466.0 L 760.0 490.0 L 743.0 514.0 L 705.0 550.0 L 683.0 565.0 L 588.0 565.0 L 518.0 570.0 L 509.0 574.0 L 498.0 582.0 L 485.0 595.0 L 475.0 609.0 L 467.0 625.0 L 462.0 643.0 L 463.0 670.0 L 473.0 701.0 L 492.0 735.0 L 517.0 767.0 L 557.0 806.0 L 560.0 807.0 L 593.0 794.0 L 629.0 775.0 L 655.0 758.0 L 686.0 733.0 L 716.0 703.0 L 731.0 685.0 L 755.0 651.0 L 774.0 617.0 L 790.0 579.0 L 801.0 544.0 L 808.0 512.0 L 813.0 462.0 L 812.0 417.0 L 804.0 365.0 L 792.0 323.0 L 776.0 284.0 L 760.0 254.0 L 743.0 228.0 L 720.0 199.0 L 686.0 165.0 L 657.0 142.0 L 629.0 124.0 L 596.0 107.0 L 566.0 95.0 L 529.0 84.0 L 499.0 78.0 L 462.0 74.0 L 420.0 74.0 L 396.0 76.0 L 361.0 82.0 Z
            " fill="#171A1D" fill-rule="evenodd" />
            <circle class="eye-glint" cx="567" cy="404" r="9" fill="#FFF3B0" />
          </g>
        </g>
      </g>
    </g>
  </g>
</svg>
