<svg width="882" height="896" viewBox="0 0 882 896" fill="none" xmlns="http://www.w3.org/2000/svg" role="img" aria-labelledby="title desc">
  <title id="title">Payky honey badger coin logo — traced variant 6</title>
  <desc id="desc">Faithful SVG trace of variant 6: minimal black honey badger head on a warm gold coin.</desc>

  <defs>
    <linearGradient id="paykyGold" x1="184" y1="165" x2="1066" y2="1061" gradientUnits="userSpaceOnUse">
      <stop offset="0" stop-color="#F2C94C"/>
      <stop offset="0.52" stop-color="#D99A22"/>
      <stop offset="1" stop-color="#B87918"/>
    </linearGradient>
    <radialGradient id="paykyGoldSoft" cx="0" cy="0" r="1" gradientUnits="userSpaceOnUse" gradientTransform="translate(535.0 423.0) rotate(63) scale(683.6 560.0)">
      <stop offset="0" stop-color="#F8D96A"/>
      <stop offset="0.7" stop-color="#D49A24"/>
      <stop offset="1" stop-color="#B87918"/>
    </radialGradient>
    <clipPath id="coinClip">
      <ellipse cx="625.0" cy="613.0" rx="441.0" ry="448.0"/>
    </clipPath>
  </defs>

  <rect width="882" height="896" fill="transparent"/>

  <!-- Coin base reconstructed from the generated variant -->
  <g transform="translate(-184 -165)">
    <ellipse cx="625.0" cy="613.0" rx="441.0" ry="448.0" fill="url(#paykyGoldSoft)"/>

  <!-- Faithful raster trace of the dark honey-badger symbol -->
  <g clip-path="url(#coinClip)">
    <path d="
      M 489.0 460.0 L 476.0 471.0 L 471.0 486.0 L 471.0 500.0 L 474.0 512.0 L 478.0 521.0 L 489.0 537.0 L 419.0 591.0 L 368.0 637.0 L 331.0 675.0 L 299.0 712.0 L 278.0 740.0 L 278.0 748.0 L 302.0 799.0 L 317.0 823.0 L 344.0 858.0 L 378.0 893.0 L 414.0 922.0 L 445.0 942.0 L 478.0 959.0 L 505.0 970.0 L 537.0 980.0 L 564.0 986.0 L 620.0 992.0 L 654.0 991.0 L 691.0 986.0 L 694.0 983.0 L 680.0 971.0 L 652.0 941.0 L 633.0 915.0 L 623.0 897.0 L 614.0 874.0 L 609.0 851.0 L 608.0 831.0 L 611.0 812.0 L 605.0 812.0 L 582.0 824.0 L 536.0 857.0 L 535.0 854.0 L 556.0 819.0 L 583.0 784.0 L 614.0 753.0 L 642.0 733.0 L 676.0 718.0 L 699.0 713.0 L 733.0 712.0 L 795.0 715.0 L 854.0 721.0 L 869.0 719.0 L 887.0 707.0 L 919.0 676.0 L 936.0 650.0 L 938.0 645.0 L 938.0 637.0 L 936.0 634.0 L 931.0 632.0 L 919.0 632.0 L 910.0 636.0 L 903.0 646.0 L 900.0 645.0 L 894.0 639.0 L 891.0 631.0 L 892.0 624.0 L 900.0 613.0 L 897.0 609.0 L 836.0 571.0 L 833.0 568.0 L 835.0 559.0 L 833.0 552.0 L 774.0 526.0 L 725.0 509.0 L 693.0 500.0 L 648.0 490.0 L 602.0 483.0 L 578.0 483.0 L 584.0 500.0 L 584.0 504.0 L 582.0 505.0 L 554.0 480.0 L 525.0 462.0 L 511.0 458.0 L 495.0 458.0 Z
      M 716.0 557.0 L 719.0 554.0 L 743.0 557.0 L 750.0 561.0 L 754.0 570.0 L 760.0 566.0 L 776.0 574.0 L 778.0 578.0 L 759.0 585.0 L 740.0 584.0 L 726.0 574.0 Z
      M 508.0 257.0 L 474.0 270.0 L 444.0 285.0 L 411.0 306.0 L 381.0 330.0 L 350.0 361.0 L 331.0 384.0 L 300.0 432.0 L 275.0 488.0 L 260.0 542.0 L 255.0 575.0 L 253.0 603.0 L 255.0 604.0 L 282.0 572.0 L 336.0 514.0 L 379.0 472.0 L 412.0 443.0 L 444.0 419.0 L 465.0 406.0 L 494.0 392.0 L 517.0 384.0 L 546.0 377.0 L 585.0 373.0 L 619.0 374.0 L 656.0 379.0 L 689.0 387.0 L 718.0 397.0 L 753.0 414.0 L 778.0 430.0 L 797.0 445.0 L 820.0 467.0 L 857.0 512.0 L 861.0 522.0 L 863.0 549.0 L 949.0 614.0 L 954.0 621.0 L 954.0 631.0 L 944.0 655.0 L 927.0 679.0 L 889.0 715.0 L 867.0 730.0 L 772.0 730.0 L 702.0 735.0 L 693.0 739.0 L 682.0 747.0 L 669.0 760.0 L 659.0 774.0 L 651.0 790.0 L 646.0 808.0 L 647.0 835.0 L 657.0 866.0 L 676.0 900.0 L 701.0 932.0 L 741.0 971.0 L 744.0 972.0 L 777.0 959.0 L 813.0 940.0 L 839.0 923.0 L 870.0 898.0 L 900.0 868.0 L 915.0 850.0 L 939.0 816.0 L 958.0 782.0 L 974.0 744.0 L 985.0 709.0 L 992.0 677.0 L 997.0 627.0 L 996.0 582.0 L 988.0 530.0 L 976.0 488.0 L 960.0 449.0 L 944.0 419.0 L 927.0 393.0 L 904.0 364.0 L 870.0 330.0 L 841.0 307.0 L 813.0 289.0 L 780.0 272.0 L 750.0 260.0 L 713.0 249.0 L 683.0 243.0 L 646.0 239.0 L 604.0 239.0 L 580.0 241.0 L 545.0 247.0 Z
    " fill="#171A1D" fill-rule="evenodd"/>
  </g>
  </g>
</svg>
